<svg width="485" height="821" viewBox="0 0 485 821" fill="none" xmlns="http://www.w3.org/2000/svg">
<rect width="485" height="777" transform="translate(0 44)" fill="white"/>
<rect width="485" height="777" transform="translate(0 44)" fill="#F2F7FF"/>
<path d="M54.97 91.28H47.11L45.85 95H40.48L48.1 73.94H54.04L61.66 95H56.23L54.97 91.28ZM53.65 87.32L51.04 79.61L48.46 87.32H53.65ZM71.5091 90.2L75.1391 78.26H80.5991L74.6591 95H68.3291L62.3891 78.26H67.8791L71.5091 90.2ZM81.7384 86.6C81.7384 84.88 82.0584 83.37 82.6984 82.07C83.3584 80.77 84.2484 79.77 85.3684 79.07C86.4884 78.37 87.7384 78.02 89.1184 78.02C90.2984 78.02 91.3284 78.26 92.2084 78.74C93.1084 79.22 93.7984 79.85 94.2784 80.63V78.26H99.4084V95H94.2784V92.63C93.7784 93.41 93.0784 94.04 92.1784 94.52C91.2984 95 90.2684 95.24 89.0884 95.24C87.7284 95.24 86.4884 94.89 85.3684 94.19C84.2484 93.47 83.3584 92.46 82.6984 91.16C82.0584 89.84 81.7384 88.32 81.7384 86.6ZM94.2784 86.63C94.2784 85.35 93.9184 84.34 93.1984 83.6C92.4984 82.86 91.6384 82.49 90.6184 82.49C89.5984 82.49 88.7284 82.86 88.0084 83.6C87.3084 84.32 86.9584 85.32 86.9584 86.6C86.9584 87.88 87.3084 88.9 88.0084 89.66C88.7284 90.4 89.5984 90.77 90.6184 90.77C91.6384 90.77 92.4984 90.4 93.1984 89.66C93.9184 88.92 94.2784 87.91 94.2784 86.63ZM105.7 76.52C104.8 76.52 104.06 76.26 103.48 75.74C102.92 75.2 102.64 74.54 102.64 73.76C102.64 72.96 102.92 72.3 103.48 71.78C104.06 71.24 104.8 70.97 105.7 70.97C106.58 70.97 107.3 71.24 107.86 71.78C108.44 72.3 108.73 72.96 108.73 73.76C108.73 74.54 108.44 75.2 107.86 75.74C107.3 76.26 106.58 76.52 105.7 76.52ZM108.25 78.26V95H103.12V78.26H108.25ZM117.097 72.8V95H111.967V72.8H117.097ZM119.795 86.6C119.795 84.88 120.115 83.37 120.755 82.07C121.415 80.77 122.305 79.77 123.425 79.07C124.545 78.37 125.795 78.02 127.175 78.02C128.355 78.02 129.385 78.26 130.265 78.74C131.165 79.22 131.855 79.85 132.335 80.63V78.26H137.465V95H132.335V92.63C131.835 93.41 131.135 94.04 130.235 94.52C129.355 95 128.325 95.24 127.145 95.24C125.785 95.24 124.545 94.89 123.425 94.19C122.305 93.47 121.415 92.46 120.755 91.16C120.115 89.84 119.795 88.32 119.795 86.6ZM132.335 86.63C132.335 85.35 131.975 84.34 131.255 83.6C130.555 82.86 129.695 82.49 128.675 82.49C127.655 82.49 126.785 82.86 126.065 83.6C125.365 84.32 125.015 85.32 125.015 86.6C125.015 87.88 125.365 88.9 126.065 89.66C126.785 90.4 127.655 90.77 128.675 90.77C129.695 90.77 130.555 90.4 131.255 89.66C131.975 88.92 132.335 87.91 132.335 86.63ZM146.306 80.63C146.786 79.85 147.476 79.22 148.376 78.74C149.276 78.26 150.306 78.02 151.466 78.02C152.846 78.02 154.096 78.37 155.216 79.07C156.336 79.77 157.216 80.77 157.856 82.07C158.516 83.37 158.846 84.88 158.846 86.6C158.846 88.32 158.516 89.84 157.856 91.16C157.216 92.46 156.336 93.47 155.216 94.19C154.096 94.89 152.846 95.24 151.466 95.24C150.286 95.24 149.256 95.01 148.376 94.55C147.496 94.07 146.806 93.44 146.306 92.66V95H141.176V72.8H146.306V80.63ZM153.626 86.6C153.626 85.32 153.266 84.32 152.546 83.6C151.846 82.86 150.976 82.49 149.936 82.49C148.916 82.49 148.046 82.86 147.326 83.6C146.626 84.34 146.276 85.35 146.276 86.63C146.276 87.91 146.626 88.92 147.326 89.66C148.046 90.4 148.916 90.77 149.936 90.77C150.956 90.77 151.826 90.4 152.546 89.66C153.266 88.9 153.626 87.88 153.626 86.6ZM164.118 76.52C163.218 76.52 162.478 76.26 161.898 75.74C161.338 75.2 161.058 74.54 161.058 73.76C161.058 72.96 161.338 72.3 161.898 71.78C162.478 71.24 163.218 70.97 164.118 70.97C164.998 70.97 165.718 71.24 166.278 71.78C166.858 72.3 167.148 72.96 167.148 73.76C167.148 74.54 166.858 75.2 166.278 75.74C165.718 76.26 164.998 76.52 164.118 76.52ZM166.668 78.26V95H161.538V78.26H166.668ZM175.515 72.8V95H170.385V72.8H175.515ZM181.813 76.52C180.913 76.52 180.173 76.26 179.593 75.74C179.033 75.2 178.753 74.54 178.753 73.76C178.753 72.96 179.033 72.3 179.593 71.78C180.173 71.24 180.913 70.97 181.813 70.97C182.693 70.97 183.413 71.24 183.973 71.78C184.553 72.3 184.843 72.96 184.843 73.76C184.843 74.54 184.553 75.2 183.973 75.74C183.413 76.26 182.693 76.52 181.813 76.52ZM184.363 78.26V95H179.233V78.26H184.363ZM197.411 90.65V95H194.801C192.941 95 191.491 94.55 190.451 93.65C189.411 92.73 188.891 91.24 188.891 89.18V82.52H186.851V78.26H188.891V74.18H194.021V78.26H197.381V82.52H194.021V89.24C194.021 89.74 194.141 90.1 194.381 90.32C194.621 90.54 195.021 90.65 195.581 90.65H197.411ZM217.368 78.26L206.868 102.95H201.348L205.188 94.43L198.378 78.26H204.108L207.978 88.73L211.818 78.26H217.368Z" fill="#03254E"/>
<path d="M44.018 109.214C45.1007 109.214 46.0293 109.41 46.804 109.802C47.5787 110.194 48.1713 110.759 48.582 111.496C48.9927 112.233 49.198 113.111 49.198 114.128C49.198 115.136 48.9927 116.009 48.582 116.746C48.1713 117.474 47.5787 118.034 46.804 118.426C46.0293 118.809 45.1007 119 44.018 119H41.12V109.214H44.018ZM44.018 118.188C45.3807 118.188 46.4167 117.833 47.126 117.124C47.8447 116.405 48.204 115.407 48.204 114.128C48.204 112.84 47.8447 111.837 47.126 111.118C46.4167 110.39 45.3807 110.026 44.018 110.026H42.1V118.188H44.018ZM57.9208 114.786C57.9208 115.122 57.9114 115.379 57.8928 115.556H51.5508C51.5788 116.135 51.7188 116.629 51.9708 117.04C52.2228 117.451 52.5541 117.763 52.9648 117.978C53.3754 118.183 53.8234 118.286 54.3088 118.286C54.9434 118.286 55.4754 118.132 55.9048 117.824C56.3434 117.516 56.6328 117.101 56.7728 116.578H57.8088C57.6221 117.325 57.2208 117.936 56.6048 118.412C55.9981 118.879 55.2328 119.112 54.3088 119.112C53.5901 119.112 52.9461 118.953 52.3768 118.636C51.8074 118.309 51.3594 117.852 51.0328 117.264C50.7154 116.667 50.5568 115.971 50.5568 115.178C50.5568 114.385 50.7154 113.689 51.0328 113.092C51.3501 112.495 51.7934 112.037 52.3628 111.72C52.9321 111.403 53.5808 111.244 54.3088 111.244C55.0368 111.244 55.6714 111.403 56.2128 111.72C56.7634 112.037 57.1834 112.467 57.4728 113.008C57.7714 113.54 57.9208 114.133 57.9208 114.786ZM56.9268 114.758C56.9361 114.189 56.8194 113.703 56.5768 113.302C56.3434 112.901 56.0214 112.597 55.6108 112.392C55.2001 112.187 54.7521 112.084 54.2668 112.084C53.5388 112.084 52.9181 112.317 52.4048 112.784C51.8914 113.251 51.6068 113.909 51.5508 114.758H56.9268ZM62.7238 112.182H60.9458V119H59.9658V112.182H58.9018V111.356H59.9658V110.824C59.9658 109.993 60.1758 109.382 60.5958 108.99C61.0251 108.598 61.7158 108.402 62.6678 108.402V109.242C62.0331 109.242 61.5851 109.363 61.3238 109.606C61.0718 109.849 60.9458 110.255 60.9458 110.824V111.356H62.7238V112.182ZM64.7565 109.914C64.5605 109.914 64.3925 109.844 64.2525 109.704C64.1125 109.564 64.0425 109.391 64.0425 109.186C64.0425 108.981 64.1125 108.813 64.2525 108.682C64.3925 108.542 64.5605 108.472 64.7565 108.472C64.9525 108.472 65.1205 108.542 65.2605 108.682C65.4005 108.813 65.4705 108.981 65.4705 109.186C65.4705 109.391 65.4005 109.564 65.2605 109.704C65.1205 109.844 64.9525 109.914 64.7565 109.914ZM65.2465 111.356V119H64.2665V111.356H65.2465ZM71.0497 111.216C71.9644 111.216 72.711 111.501 73.2897 112.07C73.8684 112.63 74.1577 113.447 74.1577 114.52V119H73.1917V114.632C73.1917 113.801 72.9817 113.167 72.5617 112.728C72.151 112.289 71.5864 112.07 70.8677 112.07C70.1304 112.07 69.5424 112.303 69.1037 112.77C68.665 113.237 68.4457 113.923 68.4457 114.828V119H67.4657V111.356H68.4457V112.658C68.6884 112.191 69.0384 111.837 69.4957 111.594C69.953 111.342 70.471 111.216 71.0497 111.216ZM83.2411 114.786C83.2411 115.122 83.2317 115.379 83.2131 115.556H76.8711C76.8991 116.135 77.0391 116.629 77.2911 117.04C77.5431 117.451 77.8744 117.763 78.2851 117.978C78.6957 118.183 79.1437 118.286 79.6291 118.286C80.2637 118.286 80.7957 118.132 81.2251 117.824C81.6637 117.516 81.9531 117.101 82.0931 116.578H83.1291C82.9424 117.325 82.5411 117.936 81.9251 118.412C81.3184 118.879 80.5531 119.112 79.6291 119.112C78.9104 119.112 78.2664 118.953 77.6971 118.636C77.1277 118.309 76.6797 117.852 76.3531 117.264C76.0357 116.667 75.8771 115.971 75.8771 115.178C75.8771 114.385 76.0357 113.689 76.3531 113.092C76.6704 112.495 77.1137 112.037 77.6831 111.72C78.2524 111.403 78.9011 111.244 79.6291 111.244C80.3571 111.244 80.9917 111.403 81.5331 111.72C82.0837 112.037 82.5037 112.467 82.7931 113.008C83.0917 113.54 83.2411 114.133 83.2411 114.786ZM82.2471 114.758C82.2564 114.189 82.1397 113.703 81.8971 113.302C81.6637 112.901 81.3417 112.597 80.9311 112.392C80.5204 112.187 80.0724 112.084 79.5871 112.084C78.8591 112.084 78.2384 112.317 77.7251 112.784C77.2117 113.251 76.9271 113.909 76.8711 114.758H82.2471ZM90.1499 112.182V116.928C90.1499 117.395 90.2385 117.717 90.4159 117.894C90.5932 118.071 90.9059 118.16 91.3539 118.16H92.2499V119H91.1999C90.5092 119 89.9959 118.841 89.6599 118.524C89.3239 118.197 89.1559 117.665 89.1559 116.928V112.182H88.0919V111.356H89.1559V109.438H90.1499V111.356H92.2499V112.182H90.1499ZM94.3561 109.914C94.1601 109.914 93.9921 109.844 93.8521 109.704C93.7121 109.564 93.6421 109.391 93.6421 109.186C93.6421 108.981 93.7121 108.813 93.8521 108.682C93.9921 108.542 94.1601 108.472 94.3561 108.472C94.5521 108.472 94.7201 108.542 94.8601 108.682C95.0001 108.813 95.0701 108.981 95.0701 109.186C95.0701 109.391 95.0001 109.564 94.8601 109.704C94.7201 109.844 94.5521 109.914 94.3561 109.914ZM94.8461 111.356V119H93.8661V111.356H94.8461ZM106.165 111.216C107.061 111.216 107.789 111.501 108.349 112.07C108.919 112.63 109.203 113.447 109.203 114.52V119H108.237V114.632C108.237 113.801 108.037 113.167 107.635 112.728C107.234 112.289 106.688 112.07 105.997 112.07C105.279 112.07 104.705 112.308 104.275 112.784C103.846 113.26 103.631 113.951 103.631 114.856V119H102.665V114.632C102.665 113.801 102.465 113.167 102.063 112.728C101.662 112.289 101.111 112.07 100.411 112.07C99.6926 112.07 99.1186 112.308 98.6893 112.784C98.26 113.26 98.0453 113.951 98.0453 114.856V119H97.0653V111.356H98.0453V112.672C98.288 112.196 98.6333 111.837 99.0813 111.594C99.5293 111.342 100.029 111.216 100.579 111.216C101.242 111.216 101.821 111.375 102.315 111.692C102.819 112.009 103.183 112.476 103.407 113.092C103.613 112.485 103.963 112.023 104.457 111.706C104.961 111.379 105.531 111.216 106.165 111.216ZM118.296 114.786C118.296 115.122 118.286 115.379 118.268 115.556H111.926C111.954 116.135 112.094 116.629 112.346 117.04C112.598 117.451 112.929 117.763 113.34 117.978C113.75 118.183 114.198 118.286 114.684 118.286C115.318 118.286 115.85 118.132 116.28 117.824C116.718 117.516 117.008 117.101 117.148 116.578H118.184C117.997 117.325 117.596 117.936 116.98 118.412C116.373 118.879 115.608 119.112 114.684 119.112C113.965 119.112 113.321 118.953 112.752 118.636C112.182 118.309 111.734 117.852 111.408 117.264C111.09 116.667 110.932 115.971 110.932 115.178C110.932 114.385 111.09 113.689 111.408 113.092C111.725 112.495 112.168 112.037 112.738 111.72C113.307 111.403 113.956 111.244 114.684 111.244C115.412 111.244 116.046 111.403 116.588 111.72C117.138 112.037 117.558 112.467 117.848 113.008C118.146 113.54 118.296 114.133 118.296 114.786ZM117.302 114.758C117.311 114.189 117.194 113.703 116.952 113.302C116.718 112.901 116.396 112.597 115.986 112.392C115.575 112.187 115.127 112.084 114.642 112.084C113.914 112.084 113.293 112.317 112.78 112.784C112.266 113.251 111.982 113.909 111.926 114.758H117.302ZM122.721 119.112C121.843 119.112 121.125 118.911 120.565 118.51C120.014 118.099 119.706 117.544 119.641 116.844H120.649C120.695 117.273 120.896 117.623 121.251 117.894C121.615 118.155 122.1 118.286 122.707 118.286C123.239 118.286 123.654 118.16 123.953 117.908C124.261 117.656 124.415 117.343 124.415 116.97C124.415 116.709 124.331 116.494 124.163 116.326C123.995 116.158 123.78 116.027 123.519 115.934C123.267 115.831 122.921 115.724 122.483 115.612C121.913 115.463 121.451 115.313 121.097 115.164C120.742 115.015 120.439 114.795 120.187 114.506C119.944 114.207 119.823 113.811 119.823 113.316C119.823 112.943 119.935 112.597 120.159 112.28C120.383 111.963 120.7 111.711 121.111 111.524C121.521 111.337 121.988 111.244 122.511 111.244C123.332 111.244 123.995 111.454 124.499 111.874C125.003 112.285 125.273 112.854 125.311 113.582H124.331C124.303 113.134 124.125 112.775 123.799 112.504C123.481 112.224 123.043 112.084 122.483 112.084C121.988 112.084 121.587 112.201 121.279 112.434C120.971 112.667 120.817 112.957 120.817 113.302C120.817 113.601 120.905 113.848 121.083 114.044C121.269 114.231 121.498 114.38 121.769 114.492C122.039 114.595 122.403 114.711 122.861 114.842C123.411 114.991 123.85 115.136 124.177 115.276C124.503 115.416 124.783 115.621 125.017 115.892C125.25 116.163 125.371 116.522 125.381 116.97C125.381 117.381 125.269 117.749 125.045 118.076C124.821 118.393 124.508 118.645 124.107 118.832C123.705 119.019 123.243 119.112 122.721 119.112ZM141.147 111.356L138.753 119H137.773L135.659 112.588L133.545 119H132.551L130.157 111.356H131.151L133.055 118.006L135.197 111.356H136.177L138.291 118.02L140.181 111.356H141.147ZM146.123 111.216C146.702 111.216 147.22 111.337 147.677 111.58C148.144 111.823 148.508 112.196 148.769 112.7C149.04 113.195 149.175 113.801 149.175 114.52V119H148.209V114.632C148.209 113.801 147.999 113.167 147.579 112.728C147.169 112.289 146.604 112.07 145.885 112.07C145.148 112.07 144.56 112.303 144.121 112.77C143.683 113.237 143.463 113.923 143.463 114.828V119H142.483V108.64H143.463V112.658C143.706 112.201 144.061 111.846 144.527 111.594C145.003 111.342 145.535 111.216 146.123 111.216ZM158.259 114.786C158.259 115.122 158.249 115.379 158.231 115.556H151.889C151.917 116.135 152.057 116.629 152.309 117.04C152.561 117.451 152.892 117.763 153.303 117.978C153.713 118.183 154.161 118.286 154.647 118.286C155.281 118.286 155.813 118.132 156.243 117.824C156.681 117.516 156.971 117.101 157.111 116.578H158.147C157.96 117.325 157.559 117.936 156.943 118.412C156.336 118.879 155.571 119.112 154.647 119.112C153.928 119.112 153.284 118.953 152.715 118.636C152.145 118.309 151.697 117.852 151.371 117.264C151.053 116.667 150.895 115.971 150.895 115.178C150.895 114.385 151.053 113.689 151.371 113.092C151.688 112.495 152.131 112.037 152.701 111.72C153.27 111.403 153.919 111.244 154.647 111.244C155.375 111.244 156.009 111.403 156.551 111.72C157.101 112.037 157.521 112.467 157.811 113.008C158.109 113.54 158.259 114.133 158.259 114.786ZM157.265 114.758C157.274 114.189 157.157 113.703 156.915 113.302C156.681 112.901 156.359 112.597 155.949 112.392C155.538 112.187 155.09 112.084 154.605 112.084C153.877 112.084 153.256 112.317 152.743 112.784C152.229 113.251 151.945 113.909 151.889 114.758H157.265ZM163.636 111.216C164.55 111.216 165.297 111.501 165.876 112.07C166.454 112.63 166.744 113.447 166.744 114.52V119H165.778V114.632C165.778 113.801 165.568 113.167 165.148 112.728C164.737 112.289 164.172 112.07 163.454 112.07C162.716 112.07 162.128 112.303 161.69 112.77C161.251 113.237 161.032 113.923 161.032 114.828V119H160.052V111.356H161.032V112.658C161.274 112.191 161.624 111.837 162.082 111.594C162.539 111.342 163.057 111.216 163.636 111.216ZM179.053 111.356L174.517 122.598H173.495L174.979 118.958L171.843 111.356H172.921L175.525 117.88L178.045 111.356H179.053ZM183.728 119.112C183.009 119.112 182.36 118.953 181.782 118.636C181.212 118.309 180.76 117.852 180.424 117.264C180.097 116.667 179.934 115.971 179.934 115.178C179.934 114.385 180.102 113.694 180.438 113.106C180.774 112.509 181.231 112.051 181.81 111.734C182.388 111.407 183.037 111.244 183.756 111.244C184.474 111.244 185.123 111.407 185.702 111.734C186.29 112.051 186.747 112.509 187.074 113.106C187.41 113.694 187.578 114.385 187.578 115.178C187.578 115.962 187.41 116.653 187.074 117.25C186.738 117.847 186.276 118.309 185.688 118.636C185.1 118.953 184.446 119.112 183.728 119.112ZM183.728 118.258C184.232 118.258 184.698 118.146 185.128 117.922C185.557 117.689 185.902 117.343 186.164 116.886C186.434 116.419 186.57 115.85 186.57 115.178C186.57 114.506 186.439 113.941 186.178 113.484C185.916 113.017 185.571 112.672 185.142 112.448C184.712 112.215 184.246 112.098 183.742 112.098C183.238 112.098 182.771 112.215 182.342 112.448C181.912 112.672 181.567 113.017 181.306 113.484C181.054 113.941 180.928 114.506 180.928 115.178C180.928 115.85 181.054 116.419 181.306 116.886C181.567 117.343 181.908 117.689 182.328 117.922C182.757 118.146 183.224 118.258 183.728 118.258ZM195.986 111.356V119H195.006V117.656C194.782 118.132 194.437 118.496 193.97 118.748C193.503 119 192.981 119.126 192.402 119.126C191.487 119.126 190.741 118.846 190.162 118.286C189.583 117.717 189.294 116.895 189.294 115.822V111.356H190.26V115.71C190.26 116.541 190.465 117.175 190.876 117.614C191.296 118.053 191.865 118.272 192.584 118.272C193.321 118.272 193.909 118.039 194.348 117.572C194.787 117.105 195.006 116.419 195.006 115.514V111.356H195.986ZM201.617 115.164C201.617 114.38 201.771 113.694 202.079 113.106C202.397 112.509 202.831 112.051 203.381 111.734C203.941 111.407 204.571 111.244 205.271 111.244C205.999 111.244 206.625 111.412 207.147 111.748C207.679 112.084 208.062 112.513 208.295 113.036V111.356H209.275V119H208.295V117.306C208.053 117.829 207.665 118.263 207.133 118.608C206.611 118.944 205.985 119.112 205.257 119.112C204.567 119.112 203.941 118.949 203.381 118.622C202.831 118.295 202.397 117.833 202.079 117.236C201.771 116.639 201.617 115.948 201.617 115.164ZM208.295 115.178C208.295 114.562 208.169 114.021 207.917 113.554C207.665 113.087 207.32 112.728 206.881 112.476C206.452 112.224 205.976 112.098 205.453 112.098C204.912 112.098 204.427 112.219 203.997 112.462C203.568 112.705 203.227 113.059 202.975 113.526C202.733 113.983 202.611 114.529 202.611 115.164C202.611 115.789 202.733 116.34 202.975 116.816C203.227 117.283 203.568 117.642 203.997 117.894C204.427 118.137 204.912 118.258 205.453 118.258C205.976 118.258 206.452 118.132 206.881 117.88C207.32 117.628 207.665 117.269 207.917 116.802C208.169 116.335 208.295 115.794 208.295 115.178ZM212.493 112.714C212.707 112.238 213.034 111.869 213.473 111.608C213.921 111.347 214.467 111.216 215.111 111.216V112.238H214.845C214.135 112.238 213.566 112.429 213.137 112.812C212.707 113.195 212.493 113.834 212.493 114.73V119H211.513V111.356H212.493V112.714ZM223.501 114.786C223.501 115.122 223.492 115.379 223.473 115.556H217.131C217.159 116.135 217.299 116.629 217.551 117.04C217.803 117.451 218.134 117.763 218.545 117.978C218.956 118.183 219.404 118.286 219.889 118.286C220.524 118.286 221.056 118.132 221.485 117.824C221.924 117.516 222.213 117.101 222.353 116.578H223.389C223.202 117.325 222.801 117.936 222.185 118.412C221.578 118.879 220.813 119.112 219.889 119.112C219.17 119.112 218.526 118.953 217.957 118.636C217.388 118.309 216.94 117.852 216.613 117.264C216.296 116.667 216.137 115.971 216.137 115.178C216.137 114.385 216.296 113.689 216.613 113.092C216.93 112.495 217.374 112.037 217.943 111.72C218.512 111.403 219.161 111.244 219.889 111.244C220.617 111.244 221.252 111.403 221.793 111.72C222.344 112.037 222.764 112.467 223.053 113.008C223.352 113.54 223.501 114.133 223.501 114.786ZM222.507 114.758C222.516 114.189 222.4 113.703 222.157 113.302C221.924 112.901 221.602 112.597 221.191 112.392C220.78 112.187 220.332 112.084 219.847 112.084C219.119 112.084 218.498 112.317 217.985 112.784C217.472 113.251 217.187 113.909 217.131 114.758H222.507ZM228.688 115.164C228.688 114.38 228.842 113.694 229.15 113.106C229.467 112.509 229.901 112.051 230.452 111.734C231.012 111.407 231.642 111.244 232.342 111.244C233.07 111.244 233.695 111.412 234.218 111.748C234.75 112.084 235.132 112.513 235.366 113.036V111.356H236.346V119H235.366V117.306C235.123 117.829 234.736 118.263 234.204 118.608C233.681 118.944 233.056 119.112 232.328 119.112C231.637 119.112 231.012 118.949 230.452 118.622C229.901 118.295 229.467 117.833 229.15 117.236C228.842 116.639 228.688 115.948 228.688 115.164ZM235.366 115.178C235.366 114.562 235.24 114.021 234.988 113.554C234.736 113.087 234.39 112.728 233.952 112.476C233.522 112.224 233.046 112.098 232.524 112.098C231.982 112.098 231.497 112.219 231.068 112.462C230.638 112.705 230.298 113.059 230.046 113.526C229.803 113.983 229.682 114.529 229.682 115.164C229.682 115.789 229.803 116.34 230.046 116.816C230.298 117.283 230.638 117.642 231.068 117.894C231.497 118.137 231.982 118.258 232.524 118.258C233.046 118.258 233.522 118.132 233.952 117.88C234.39 117.628 234.736 117.269 234.988 116.802C235.24 116.335 235.366 115.794 235.366 115.178ZM241.299 118.048L243.875 111.356H244.911L241.845 119H240.739L237.673 111.356H238.723L241.299 118.048ZM245.791 115.164C245.791 114.38 245.945 113.694 246.253 113.106C246.57 112.509 247.004 112.051 247.555 111.734C248.115 111.407 248.745 111.244 249.445 111.244C250.173 111.244 250.798 111.412 251.321 111.748C251.853 112.084 252.236 112.513 252.469 113.036V111.356H253.449V119H252.469V117.306C252.226 117.829 251.839 118.263 251.307 118.608C250.784 118.944 250.159 119.112 249.431 119.112C248.74 119.112 248.115 118.949 247.555 118.622C247.004 118.295 246.57 117.833 246.253 117.236C245.945 116.639 245.791 115.948 245.791 115.164ZM252.469 115.178C252.469 114.562 252.343 114.021 252.091 113.554C251.839 113.087 251.494 112.728 251.055 112.476C250.626 112.224 250.15 112.098 249.627 112.098C249.086 112.098 248.6 112.219 248.171 112.462C247.742 112.705 247.401 113.059 247.149 113.526C246.906 113.983 246.785 114.529 246.785 115.164C246.785 115.789 246.906 116.34 247.149 116.816C247.401 117.283 247.742 117.642 248.171 117.894C248.6 118.137 249.086 118.258 249.627 118.258C250.15 118.258 250.626 118.132 251.055 117.88C251.494 117.628 251.839 117.269 252.091 116.802C252.343 116.335 252.469 115.794 252.469 115.178ZM256.176 109.914C255.98 109.914 255.812 109.844 255.672 109.704C255.532 109.564 255.462 109.391 255.462 109.186C255.462 108.981 255.532 108.813 255.672 108.682C255.812 108.542 255.98 108.472 256.176 108.472C256.372 108.472 256.54 108.542 256.68 108.682C256.82 108.813 256.89 108.981 256.89 109.186C256.89 109.391 256.82 109.564 256.68 109.704C256.54 109.844 256.372 109.914 256.176 109.914ZM256.666 111.356V119H255.686V111.356H256.666ZM259.866 108.64V119H258.886V108.64H259.866ZM261.637 115.164C261.637 114.38 261.791 113.694 262.099 113.106C262.416 112.509 262.85 112.051 263.401 111.734C263.961 111.407 264.591 111.244 265.291 111.244C266.019 111.244 266.644 111.412 267.167 111.748C267.699 112.084 268.082 112.513 268.315 113.036V111.356H269.295V119H268.315V117.306C268.072 117.829 267.685 118.263 267.153 118.608C266.63 118.944 266.005 119.112 265.277 119.112C264.586 119.112 263.961 118.949 263.401 118.622C262.85 118.295 262.416 117.833 262.099 117.236C261.791 116.639 261.637 115.948 261.637 115.164ZM268.315 115.178C268.315 114.562 268.189 114.021 267.937 113.554C267.685 113.087 267.34 112.728 266.901 112.476C266.472 112.224 265.996 112.098 265.473 112.098C264.932 112.098 264.446 112.219 264.017 112.462C263.588 112.705 263.247 113.059 262.995 113.526C262.752 113.983 262.631 114.529 262.631 115.164C262.631 115.789 262.752 116.34 262.995 116.816C263.247 117.283 263.588 117.642 264.017 117.894C264.446 118.137 264.932 118.258 265.473 118.258C265.996 118.258 266.472 118.132 266.901 117.88C267.34 117.628 267.685 117.269 267.937 116.802C268.189 116.335 268.315 115.794 268.315 115.178ZM272.498 113.05C272.75 112.518 273.137 112.084 273.66 111.748C274.192 111.412 274.817 111.244 275.536 111.244C276.236 111.244 276.861 111.407 277.412 111.734C277.963 112.051 278.392 112.509 278.7 113.106C279.017 113.694 279.176 114.38 279.176 115.164C279.176 115.948 279.017 116.639 278.7 117.236C278.392 117.833 277.958 118.295 277.398 118.622C276.847 118.949 276.227 119.112 275.536 119.112C274.808 119.112 274.178 118.949 273.646 118.622C273.123 118.286 272.741 117.852 272.498 117.32V119H271.532V108.64H272.498V113.05ZM278.182 115.164C278.182 114.529 278.056 113.983 277.804 113.526C277.561 113.059 277.225 112.705 276.796 112.462C276.367 112.219 275.881 112.098 275.34 112.098C274.817 112.098 274.337 112.224 273.898 112.476C273.469 112.728 273.128 113.087 272.876 113.554C272.624 114.021 272.498 114.562 272.498 115.178C272.498 115.794 272.624 116.335 272.876 116.802C273.128 117.269 273.469 117.628 273.898 117.88C274.337 118.132 274.817 118.258 275.34 118.258C275.881 118.258 276.367 118.137 276.796 117.894C277.225 117.642 277.561 117.283 277.804 116.816C278.056 116.34 278.182 115.789 278.182 115.164ZM281.959 108.64V119H280.979V108.64H281.959ZM291.095 114.786C291.095 115.122 291.085 115.379 291.067 115.556H284.725C284.753 116.135 284.893 116.629 285.145 117.04C285.397 117.451 285.728 117.763 286.139 117.978C286.549 118.183 286.997 118.286 287.483 118.286C288.117 118.286 288.649 118.132 289.079 117.824C289.517 117.516 289.807 117.101 289.947 116.578H290.983C290.796 117.325 290.395 117.936 289.779 118.412C289.172 118.879 288.407 119.112 287.483 119.112C286.764 119.112 286.12 118.953 285.551 118.636C284.981 118.309 284.533 117.852 284.207 117.264C283.889 116.667 283.731 115.971 283.731 115.178C283.731 114.385 283.889 113.689 284.207 113.092C284.524 112.495 284.967 112.037 285.537 111.72C286.106 111.403 286.755 111.244 287.483 111.244C288.211 111.244 288.845 111.403 289.387 111.72C289.937 112.037 290.357 112.467 290.647 113.008C290.945 113.54 291.095 114.133 291.095 114.786ZM290.101 114.758C290.11 114.189 289.993 113.703 289.751 113.302C289.517 112.901 289.195 112.597 288.785 112.392C288.374 112.187 287.926 112.084 287.441 112.084C286.713 112.084 286.092 112.317 285.579 112.784C285.065 113.251 284.781 113.909 284.725 114.758H290.101ZM293.056 119.07C292.85 119.07 292.678 119 292.538 118.86C292.407 118.72 292.342 118.547 292.342 118.342C292.342 118.137 292.407 117.969 292.538 117.838C292.678 117.698 292.85 117.628 293.056 117.628C293.252 117.628 293.415 117.698 293.546 117.838C293.686 117.969 293.756 118.137 293.756 118.342C293.756 118.547 293.686 118.72 293.546 118.86C293.415 119 293.252 119.07 293.056 119.07Z" fill="black"/>
<rect x="353.48" y="77.5" width="91.02" height="39" rx="5.5" fill="white"/>
<g clip-path="url(#clip0_195_4915)">
<path fill-rule="evenodd" clip-rule="evenodd" d="M377.98 90.98C378.113 90.98 378.24 91.0327 378.334 91.1264C378.427 91.2202 378.48 91.3474 378.48 91.48V96.48H383.48C383.613 96.48 383.74 96.5327 383.834 96.6264C383.927 96.7202 383.98 96.8474 383.98 96.98C383.98 97.1126 383.927 97.2398 383.834 97.3335C383.74 97.4273 383.613 97.48 383.48 97.48H378.48V102.48C378.48 102.613 378.427 102.74 378.334 102.834C378.24 102.927 378.113 102.98 377.98 102.98C377.847 102.98 377.72 102.927 377.626 102.834C377.533 102.74 377.48 102.613 377.48 102.48V97.48H372.48C372.347 97.48 372.22 97.4273 372.126 97.3335C372.033 97.2398 371.98 97.1126 371.98 96.98C371.98 96.8474 372.033 96.7202 372.126 96.6264C372.22 96.5327 372.347 96.48 372.48 96.48H377.48V91.48C377.48 91.3474 377.533 91.2202 377.626 91.1264C377.72 91.0327 377.847 90.98 377.98 90.98Z" fill="#1A202C"/>
</g>
<path d="M407.225 100.69H405.951L400.827 92.9199V100.69H399.553V90.9179H400.827L405.951 98.6739V90.9179H407.225V100.69ZM416.397 96.5599C416.397 96.8026 416.383 97.0593 416.355 97.3299H410.223C410.27 98.0859 410.526 98.6786 410.993 99.1079C411.469 99.5279 412.043 99.7379 412.715 99.7379C413.266 99.7379 413.723 99.6119 414.087 99.3599C414.46 99.0986 414.722 98.7533 414.871 98.3239H416.243C416.038 99.0613 415.627 99.6633 415.011 100.13C414.395 100.587 413.63 100.816 412.715 100.816C411.987 100.816 411.334 100.653 410.755 100.326C410.186 99.9993 409.738 99.5373 409.411 98.9399C409.084 98.3333 408.921 97.6333 408.921 96.8399C408.921 96.0466 409.08 95.3513 409.397 94.7539C409.714 94.1566 410.158 93.6993 410.727 93.3819C411.306 93.0553 411.968 92.8919 412.715 92.8919C413.443 92.8919 414.087 93.0506 414.647 93.3679C415.207 93.6853 415.636 94.1239 415.935 94.6839C416.243 95.2346 416.397 95.8599 416.397 96.5599ZM415.081 96.2939C415.081 95.8086 414.974 95.3933 414.759 95.0479C414.544 94.6933 414.25 94.4273 413.877 94.2499C413.513 94.0633 413.107 93.9699 412.659 93.9699C412.015 93.9699 411.464 94.1753 411.007 94.5859C410.559 94.9966 410.302 95.5659 410.237 96.2939H415.081ZM428.298 93.0179L425.904 100.69H424.588L422.74 94.5999L420.892 100.69H419.576L417.168 93.0179H418.47L420.234 99.4579L422.138 93.0179H423.44L425.302 99.4719L427.038 93.0179H428.298Z" fill="#1A202C"/>
<rect x="353.48" y="77.5" width="91.02" height="39" rx="5.5" stroke="#CCE1FF"/>
<rect x="40.5" y="150.5" width="404" height="130.27" rx="5.5" fill="white"/>
<rect x="65" y="175" width="59.25" height="23" rx="4" fill="#B2F5EA"/>
<path d="M76.25 182.98C76.99 182.98 77.6367 183.127 78.19 183.42C78.7433 183.713 79.17 184.127 79.47 184.66C79.7767 185.187 79.93 185.797 79.93 186.49C79.93 187.177 79.7767 187.787 79.47 188.32C79.17 188.853 78.74 189.267 78.18 189.56C77.6267 189.853 76.9833 190 76.25 190H73.62V182.98H76.25ZM76.14 188.52C76.7867 188.52 77.29 188.343 77.65 187.99C78.01 187.637 78.19 187.137 78.19 186.49C78.19 185.843 78.01 185.34 77.65 184.98C77.29 184.62 76.7867 184.44 76.14 184.44H75.33V188.52H76.14ZM82.5956 184.35V185.77H84.8856V187.09H82.5956V188.63H85.1856V190H80.8856V182.98H85.1856V184.35H82.5956ZM90.8658 182.98V184.35H88.0058V185.83H90.1458V187.16H88.0058V190H86.2958V182.98H90.8658ZM96.1345 188.76H93.5145L93.0945 190H91.3045L93.8445 182.98H95.8245L98.3645 190H96.5545L96.1345 188.76ZM95.6945 187.44L94.8245 184.87L93.9645 187.44H95.6945ZM100.818 182.98V187.18C100.818 187.6 100.921 187.923 101.128 188.15C101.334 188.377 101.638 188.49 102.038 188.49C102.438 188.49 102.744 188.377 102.958 188.15C103.171 187.923 103.278 187.6 103.278 187.18V182.98H104.988V187.17C104.988 187.797 104.854 188.327 104.588 188.76C104.321 189.193 103.961 189.52 103.508 189.74C103.061 189.96 102.561 190.07 102.008 190.07C101.454 190.07 100.958 189.963 100.518 189.75C100.084 189.53 99.7409 189.203 99.4876 188.77C99.2342 188.33 99.1076 187.797 99.1076 187.17V182.98H100.818ZM107.898 188.68H110.138V190H106.188V182.98H107.898V188.68ZM116.004 182.98V184.35H114.144V190H112.434V184.35H110.574V182.98H116.004Z" fill="#234E52"/>
<path d="M81.032 210.832L77.912 222H75.272L73.176 214.048L70.984 222L68.36 222.016L65.352 210.832H67.752L69.72 219.504L71.992 210.832H74.488L76.632 219.456L78.616 210.832H81.032ZM86.4306 222.144C85.5773 222.144 84.8093 221.957 84.1266 221.584C83.444 221.2 82.9053 220.661 82.5106 219.968C82.1266 219.275 81.9346 218.475 81.9346 217.568C81.9346 216.661 82.132 215.861 82.5266 215.168C82.932 214.475 83.4813 213.941 84.1746 213.568C84.868 213.184 85.6413 212.992 86.4946 212.992C87.348 212.992 88.1213 213.184 88.8146 213.568C89.508 213.941 90.052 214.475 90.4466 215.168C90.852 215.861 91.0546 216.661 91.0546 217.568C91.0546 218.475 90.8466 219.275 90.4306 219.968C90.0253 220.661 89.4706 221.2 88.7666 221.584C88.0733 221.957 87.2946 222.144 86.4306 222.144ZM86.4306 220.192C86.836 220.192 87.2146 220.096 87.5666 219.904C87.9293 219.701 88.2173 219.403 88.4306 219.008C88.644 218.613 88.7506 218.133 88.7506 217.568C88.7506 216.725 88.5266 216.08 88.0786 215.632C87.6413 215.173 87.1026 214.944 86.4626 214.944C85.8226 214.944 85.284 215.173 84.8466 215.632C84.42 216.08 84.2066 216.725 84.2066 217.568C84.2066 218.411 84.4146 219.061 84.8306 219.52C85.2573 219.968 85.7906 220.192 86.4306 220.192ZM94.9378 214.512C95.2258 214.043 95.5991 213.675 96.0578 213.408C96.5271 213.141 97.0604 213.008 97.6578 213.008V215.36H97.0658C96.3618 215.36 95.8284 215.525 95.4658 215.856C95.1138 216.187 94.9378 216.763 94.9378 217.584V222H92.6978V213.136H94.9378V214.512ZM104.415 222L101.407 218.224V222H99.1665V210.16H101.407V216.896L104.383 213.136H107.295L103.391 217.584L107.327 222H104.415ZM111.747 217.536C111.747 216.64 111.923 215.845 112.275 215.152C112.637 214.459 113.128 213.925 113.747 213.552C114.365 213.179 115.053 212.992 115.811 212.992C116.387 212.992 116.936 213.12 117.459 213.376C117.981 213.621 118.397 213.952 118.707 214.368V210.16H120.979V222H118.707V220.688C118.429 221.125 118.04 221.477 117.539 221.744C117.037 222.011 116.456 222.144 115.795 222.144C115.048 222.144 114.365 221.952 113.747 221.568C113.128 221.184 112.637 220.645 112.275 219.952C111.923 219.248 111.747 218.443 111.747 217.536ZM118.723 217.568C118.723 217.024 118.616 216.56 118.403 216.176C118.189 215.781 117.901 215.483 117.539 215.28C117.176 215.067 116.787 214.96 116.371 214.96C115.955 214.96 115.571 215.061 115.219 215.264C114.867 215.467 114.579 215.765 114.355 216.16C114.141 216.544 114.035 217.003 114.035 217.536C114.035 218.069 114.141 218.539 114.355 218.944C114.579 219.339 114.867 219.643 115.219 219.856C115.581 220.069 115.965 220.176 116.371 220.176C116.787 220.176 117.176 220.075 117.539 219.872C117.901 219.659 118.189 219.36 118.403 218.976C118.616 218.581 118.723 218.112 118.723 217.568ZM122.59 217.536C122.59 216.64 122.766 215.845 123.118 215.152C123.481 214.459 123.967 213.925 124.575 213.552C125.193 213.179 125.881 212.992 126.639 212.992C127.3 212.992 127.876 213.125 128.367 213.392C128.868 213.659 129.268 213.995 129.567 214.4V213.136H131.823V222H129.567V220.704C129.279 221.12 128.879 221.467 128.367 221.744C127.865 222.011 127.284 222.144 126.623 222.144C125.876 222.144 125.193 221.952 124.575 221.568C123.967 221.184 123.481 220.645 123.118 219.952C122.766 219.248 122.59 218.443 122.59 217.536ZM129.567 217.568C129.567 217.024 129.46 216.56 129.247 216.176C129.033 215.781 128.745 215.483 128.383 215.28C128.02 215.067 127.631 214.96 127.215 214.96C126.799 214.96 126.415 215.061 126.062 215.264C125.711 215.467 125.423 215.765 125.199 216.16C124.985 216.544 124.879 217.003 124.879 217.536C124.879 218.069 124.985 218.539 125.199 218.944C125.423 219.339 125.711 219.643 126.062 219.856C126.425 220.069 126.809 220.176 127.215 220.176C127.631 220.176 128.02 220.075 128.383 219.872C128.745 219.659 129.033 219.36 129.247 218.976C129.46 218.581 129.567 218.112 129.567 217.568ZM142.49 213.136L137.002 226.192H134.618L136.538 221.776L132.986 213.136H135.498L137.786 219.328L140.106 213.136H142.49ZM147.09 222.144C146.364 222.144 145.714 222.016 145.138 221.76C144.562 221.493 144.103 221.136 143.762 220.688C143.431 220.24 143.25 219.744 143.218 219.2H145.474C145.516 219.541 145.682 219.824 145.97 220.048C146.268 220.272 146.636 220.384 147.074 220.384C147.5 220.384 147.831 220.299 148.066 220.128C148.311 219.957 148.434 219.739 148.434 219.472C148.434 219.184 148.284 218.971 147.986 218.832C147.698 218.683 147.234 218.523 146.594 218.352C145.932 218.192 145.388 218.027 144.962 217.856C144.546 217.685 144.183 217.424 143.874 217.072C143.575 216.72 143.426 216.245 143.426 215.648C143.426 215.157 143.564 214.709 143.842 214.304C144.13 213.899 144.535 213.579 145.058 213.344C145.591 213.109 146.215 212.992 146.93 212.992C147.986 212.992 148.828 213.259 149.458 213.792C150.087 214.315 150.434 215.024 150.498 215.92H148.354C148.322 215.568 148.172 215.291 147.906 215.088C147.65 214.875 147.303 214.768 146.866 214.768C146.46 214.768 146.146 214.843 145.922 214.992C145.708 215.141 145.602 215.349 145.602 215.616C145.602 215.915 145.751 216.144 146.05 216.304C146.348 216.453 146.812 216.608 147.442 216.768C148.082 216.928 148.61 217.093 149.026 217.264C149.442 217.435 149.799 217.701 150.098 218.064C150.407 218.416 150.567 218.885 150.578 219.472C150.578 219.984 150.434 220.443 150.146 220.848C149.868 221.253 149.463 221.573 148.93 221.808C148.407 222.032 147.794 222.144 147.09 222.144Z" fill="black"/>
<path d="M75.682 239.61V249.27H74.702V241.556L71.258 249.27H70.544L67.1 241.584V249.27H66.12V239.61H67.156L70.894 247.982L74.632 239.61H75.682ZM81.2512 249.382C80.5325 249.382 79.8838 249.223 79.3052 248.906C78.7358 248.579 78.2832 248.122 77.9472 247.534C77.6205 246.937 77.4572 246.241 77.4572 245.448C77.4572 244.655 77.6252 243.964 77.9612 243.376C78.2972 242.779 78.7545 242.321 79.3332 242.004C79.9118 241.677 80.5605 241.514 81.2792 241.514C81.9978 241.514 82.6465 241.677 83.2252 242.004C83.8132 242.321 84.2705 242.779 84.5972 243.376C84.9332 243.964 85.1012 244.655 85.1012 245.448C85.1012 246.232 84.9332 246.923 84.5972 247.52C84.2612 248.117 83.7992 248.579 83.2112 248.906C82.6232 249.223 81.9698 249.382 81.2512 249.382ZM81.2512 248.528C81.7552 248.528 82.2218 248.416 82.6512 248.192C83.0805 247.959 83.4258 247.613 83.6872 247.156C83.9578 246.689 84.0932 246.12 84.0932 245.448C84.0932 244.776 83.9625 244.211 83.7012 243.754C83.4398 243.287 83.0945 242.942 82.6652 242.718C82.2358 242.485 81.7692 242.368 81.2652 242.368C80.7612 242.368 80.2945 242.485 79.8652 242.718C79.4358 242.942 79.0905 243.287 78.8292 243.754C78.5772 244.211 78.4512 244.776 78.4512 245.448C78.4512 246.12 78.5772 246.689 78.8292 247.156C79.0905 247.613 79.4312 247.959 79.8512 248.192C80.2805 248.416 80.7472 248.528 81.2512 248.528ZM90.4716 241.486C91.3862 241.486 92.1329 241.771 92.7116 242.34C93.2902 242.9 93.5796 243.717 93.5796 244.79V249.27H92.6136V244.902C92.6136 244.071 92.4036 243.437 91.9836 242.998C91.5729 242.559 91.0082 242.34 90.2896 242.34C89.5522 242.34 88.9642 242.573 88.5256 243.04C88.0869 243.507 87.8676 244.193 87.8676 245.098V249.27H86.8876V241.626H87.8676V242.928C88.1102 242.461 88.4602 242.107 88.9176 241.864C89.3749 241.612 89.8929 241.486 90.4716 241.486ZM104.335 243.67V244.496H98.8888V243.67H104.335ZM115.982 239.484V240.296H111.67V243.95H115.31V244.762H111.67V249.27H110.69V239.484H115.982ZM118.575 242.984C118.789 242.508 119.116 242.139 119.555 241.878C120.003 241.617 120.549 241.486 121.193 241.486V242.508H120.927C120.217 242.508 119.648 242.699 119.219 243.082C118.789 243.465 118.575 244.104 118.575 245V249.27H117.595V241.626H118.575V242.984ZM123.157 240.184C122.961 240.184 122.793 240.114 122.653 239.974C122.513 239.834 122.443 239.661 122.443 239.456C122.443 239.251 122.513 239.083 122.653 238.952C122.793 238.812 122.961 238.742 123.157 238.742C123.353 238.742 123.521 238.812 123.661 238.952C123.801 239.083 123.871 239.251 123.871 239.456C123.871 239.661 123.801 239.834 123.661 239.974C123.521 240.114 123.353 240.184 123.157 240.184ZM123.647 241.626V249.27H122.667V241.626H123.647ZM126.762 247.646L125.306 251.314H124.634L125.67 247.646H126.762ZM133.22 246.596C133.322 247.203 133.556 247.669 133.92 247.996C134.284 248.323 134.783 248.486 135.418 248.486C136.295 248.486 136.944 248.145 137.364 247.464C137.793 246.773 137.989 245.635 137.952 244.048C137.774 244.561 137.434 244.967 136.93 245.266C136.435 245.555 135.866 245.7 135.222 245.7C134.242 245.7 133.453 245.406 132.856 244.818C132.268 244.23 131.974 243.413 131.974 242.368C131.974 241.743 132.095 241.178 132.338 240.674C132.58 240.17 132.949 239.773 133.444 239.484C133.938 239.195 134.545 239.05 135.264 239.05C136.589 239.05 137.513 239.484 138.036 240.352C138.558 241.211 138.82 242.447 138.82 244.062C138.82 245.807 138.558 247.119 138.036 247.996C137.522 248.873 136.636 249.312 135.376 249.312C134.452 249.312 133.733 249.065 133.22 248.57C132.706 248.066 132.403 247.408 132.31 246.596H133.22ZM135.376 244.86C135.814 244.86 136.216 244.771 136.58 244.594C136.953 244.407 137.252 244.137 137.476 243.782C137.7 243.427 137.812 243.003 137.812 242.508C137.812 241.743 137.592 241.113 137.154 240.618C136.724 240.123 136.104 239.876 135.292 239.876C134.573 239.876 133.994 240.1 133.556 240.548C133.126 240.996 132.912 241.593 132.912 242.34C132.912 243.124 133.126 243.74 133.556 244.188C133.985 244.636 134.592 244.86 135.376 244.86ZM141.046 249.34C140.84 249.34 140.668 249.27 140.528 249.13C140.397 248.99 140.332 248.817 140.332 248.612C140.332 248.407 140.397 248.239 140.528 248.108C140.668 247.968 140.84 247.898 141.046 247.898C141.242 247.898 141.405 247.968 141.536 248.108C141.676 248.239 141.746 248.407 141.746 248.612C141.746 248.817 141.676 248.99 141.536 249.13C141.405 249.27 141.242 249.34 141.046 249.34ZM141.046 243.25C140.84 243.25 140.668 243.18 140.528 243.04C140.397 242.9 140.332 242.727 140.332 242.522C140.332 242.317 140.397 242.149 140.528 242.018C140.668 241.878 140.84 241.808 141.046 241.808C141.242 241.808 141.405 241.878 141.536 242.018C141.676 242.149 141.746 242.317 141.746 242.522C141.746 242.727 141.676 242.9 141.536 243.04C141.405 243.18 141.242 243.25 141.046 243.25ZM143.252 244.16C143.252 242.555 143.499 241.309 143.994 240.422C144.488 239.535 145.375 239.092 146.654 239.092C147.932 239.092 148.819 239.535 149.314 240.422C149.808 241.309 150.056 242.555 150.056 244.16C150.056 245.793 149.808 247.058 149.314 247.954C148.819 248.85 147.932 249.298 146.654 249.298C145.366 249.298 144.474 248.85 143.98 247.954C143.494 247.058 143.252 245.793 143.252 244.16ZM149.09 244.16C149.09 243.292 149.029 242.559 148.908 241.962C148.786 241.365 148.548 240.884 148.194 240.52C147.839 240.156 147.326 239.974 146.654 239.974C145.982 239.974 145.468 240.156 145.114 240.52C144.759 240.884 144.521 241.365 144.4 241.962C144.278 242.559 144.218 243.292 144.218 244.16C144.218 245.056 144.278 245.807 144.4 246.414C144.521 247.011 144.759 247.492 145.114 247.856C145.468 248.22 145.982 248.402 146.654 248.402C147.326 248.402 147.839 248.22 148.194 247.856C148.548 247.492 148.786 247.011 148.908 246.414C149.029 245.807 149.09 245.056 149.09 244.16ZM151.879 244.16C151.879 242.555 152.126 241.309 152.621 240.422C153.115 239.535 154.002 239.092 155.281 239.092C156.559 239.092 157.446 239.535 157.941 240.422C158.435 241.309 158.683 242.555 158.683 244.16C158.683 245.793 158.435 247.058 157.941 247.954C157.446 248.85 156.559 249.298 155.281 249.298C153.993 249.298 153.101 248.85 152.607 247.954C152.121 247.058 151.879 245.793 151.879 244.16ZM157.717 244.16C157.717 243.292 157.656 242.559 157.535 241.962C157.413 241.365 157.175 240.884 156.821 240.52C156.466 240.156 155.953 239.974 155.281 239.974C154.609 239.974 154.095 240.156 153.741 240.52C153.386 240.884 153.148 241.365 153.027 241.962C152.905 242.559 152.845 243.292 152.845 244.16C152.845 245.056 152.905 245.807 153.027 246.414C153.148 247.011 153.386 247.492 153.741 247.856C154.095 248.22 154.609 248.402 155.281 248.402C155.953 248.402 156.466 248.22 156.821 247.856C157.175 247.492 157.413 247.011 157.535 246.414C157.656 245.807 157.717 245.056 157.717 244.16ZM166.386 246.946H161.934L161.08 249.27H160.044L163.614 239.61H164.72L168.276 249.27H167.24L166.386 246.946ZM166.092 246.134L164.16 240.842L162.228 246.134H166.092ZM179.411 239.61V249.27H178.431V241.556L174.987 249.27H174.273L170.829 241.584V249.27H169.849V239.61H170.885L174.623 247.982L178.361 239.61H179.411ZM190.221 243.67V244.496H184.775V243.67H190.221ZM202.695 240.072H197.571V243.656C197.804 243.329 198.145 243.063 198.593 242.858C199.041 242.643 199.526 242.536 200.049 242.536C200.814 242.536 201.44 242.695 201.925 243.012C202.41 243.32 202.76 243.726 202.975 244.23C203.19 244.725 203.297 245.257 203.297 245.826C203.297 246.479 203.171 247.072 202.919 247.604C202.676 248.127 202.298 248.542 201.785 248.85C201.281 249.158 200.651 249.312 199.895 249.312C198.934 249.312 198.154 249.065 197.557 248.57C196.96 248.066 196.596 247.389 196.465 246.54H197.431C197.552 247.156 197.832 247.632 198.271 247.968C198.71 248.304 199.251 248.472 199.895 248.472C200.707 248.472 201.318 248.234 201.729 247.758C202.149 247.273 202.359 246.633 202.359 245.84C202.359 245.065 202.149 244.463 201.729 244.034C201.309 243.595 200.707 243.376 199.923 243.376C199.382 243.376 198.906 243.502 198.495 243.754C198.084 244.006 197.781 244.347 197.585 244.776H196.661V239.218H202.695V240.072ZM205.386 249.34C205.18 249.34 205.008 249.27 204.868 249.13C204.737 248.99 204.672 248.817 204.672 248.612C204.672 248.407 204.737 248.239 204.868 248.108C205.008 247.968 205.18 247.898 205.386 247.898C205.582 247.898 205.745 247.968 205.876 248.108C206.016 248.239 206.086 248.407 206.086 248.612C206.086 248.817 206.016 248.99 205.876 249.13C205.745 249.27 205.582 249.34 205.386 249.34ZM205.386 243.25C205.18 243.25 205.008 243.18 204.868 243.04C204.737 242.9 204.672 242.727 204.672 242.522C204.672 242.317 204.737 242.149 204.868 242.018C205.008 241.878 205.18 241.808 205.386 241.808C205.582 241.808 205.745 241.878 205.876 242.018C206.016 242.149 206.086 242.317 206.086 242.522C206.086 242.727 206.016 242.9 205.876 243.04C205.745 243.18 205.582 243.25 205.386 243.25ZM207.592 244.16C207.592 242.555 207.839 241.309 208.334 240.422C208.828 239.535 209.715 239.092 210.994 239.092C212.272 239.092 213.159 239.535 213.654 240.422C214.148 241.309 214.396 242.555 214.396 244.16C214.396 245.793 214.148 247.058 213.654 247.954C213.159 248.85 212.272 249.298 210.994 249.298C209.706 249.298 208.814 248.85 208.32 247.954C207.834 247.058 207.592 245.793 207.592 244.16ZM213.43 244.16C213.43 243.292 213.369 242.559 213.248 241.962C213.126 241.365 212.888 240.884 212.534 240.52C212.179 240.156 211.666 239.974 210.994 239.974C210.322 239.974 209.808 240.156 209.454 240.52C209.099 240.884 208.861 241.365 208.74 241.962C208.618 242.559 208.558 243.292 208.558 244.16C208.558 245.056 208.618 245.807 208.74 246.414C208.861 247.011 209.099 247.492 209.454 247.856C209.808 248.22 210.322 248.402 210.994 248.402C211.666 248.402 212.179 248.22 212.534 247.856C212.888 247.492 213.126 247.011 213.248 246.414C213.369 245.807 213.43 245.056 213.43 244.16ZM216.219 244.16C216.219 242.555 216.466 241.309 216.961 240.422C217.455 239.535 218.342 239.092 219.621 239.092C220.899 239.092 221.786 239.535 222.281 240.422C222.775 241.309 223.023 242.555 223.023 244.16C223.023 245.793 222.775 247.058 222.281 247.954C221.786 248.85 220.899 249.298 219.621 249.298C218.333 249.298 217.441 248.85 216.947 247.954C216.461 247.058 216.219 245.793 216.219 244.16ZM222.057 244.16C222.057 243.292 221.996 242.559 221.875 241.962C221.753 241.365 221.515 240.884 221.161 240.52C220.806 240.156 220.293 239.974 219.621 239.974C218.949 239.974 218.435 240.156 218.081 240.52C217.726 240.884 217.488 241.365 217.367 241.962C217.245 242.559 217.185 243.292 217.185 244.16C217.185 245.056 217.245 245.807 217.367 246.414C217.488 247.011 217.726 247.492 218.081 247.856C218.435 248.22 218.949 248.402 219.621 248.402C220.293 248.402 220.806 248.22 221.161 247.856C221.515 247.492 221.753 247.011 221.875 246.414C221.996 245.807 222.057 245.056 222.057 244.16ZM231.314 242.298C231.314 243.138 231.038 243.815 230.488 244.328C229.937 244.841 229.111 245.098 228.01 245.098H226.036V249.27H225.056V239.484H228.01C229.102 239.484 229.923 239.741 230.474 240.254C231.034 240.767 231.314 241.449 231.314 242.298ZM228.01 244.258C229.54 244.258 230.306 243.605 230.306 242.298C230.306 241.645 230.124 241.15 229.76 240.814C229.396 240.478 228.812 240.31 228.01 240.31H226.036V244.258H228.01ZM242.52 239.61V249.27H241.54V241.556L238.096 249.27H237.382L233.938 241.584V249.27H232.958V239.61H233.994L237.732 247.982L241.47 239.61H242.52Z" fill="black"/>
<rect x="380.5" y="196.135" width="39" height="39" rx="5.5" fill="white"/>
<g clip-path="url(#clip1_195_4915)">
<path d="M395 217.135C394.602 217.135 394.221 216.977 393.939 216.696C393.658 216.414 393.5 216.033 393.5 215.635C393.5 215.237 393.658 214.856 393.939 214.574C394.221 214.293 394.602 214.135 395 214.135C395.398 214.135 395.779 214.293 396.061 214.574C396.342 214.856 396.5 215.237 396.5 215.635C396.5 216.033 396.342 216.414 396.061 216.696C395.779 216.977 395.398 217.135 395 217.135ZM400 217.135C399.602 217.135 399.221 216.977 398.939 216.696C398.658 216.414 398.5 216.033 398.5 215.635C398.5 215.237 398.658 214.856 398.939 214.574C399.221 214.293 399.602 214.135 400 214.135C400.398 214.135 400.779 214.293 401.061 214.574C401.342 214.856 401.5 215.237 401.5 215.635C401.5 216.033 401.342 216.414 401.061 216.696C400.779 216.977 400.398 217.135 400 217.135ZM405 217.135C404.602 217.135 404.221 216.977 403.939 216.696C403.658 216.414 403.5 216.033 403.5 215.635C403.5 215.237 403.658 214.856 403.939 214.574C404.221 214.293 404.602 214.135 405 214.135C405.398 214.135 405.779 214.293 406.061 214.574C406.342 214.856 406.5 215.237 406.5 215.635C406.5 216.033 406.342 216.414 406.061 216.696C405.779 216.977 405.398 217.135 405 217.135Z" fill="#1A202C"/>
</g>
<rect x="380.5" y="196.135" width="39" height="39" rx="5.5" stroke="#CCE1FF"/>
<rect x="40.5" y="150.5" width="404" height="130.27" rx="5.5" stroke="#CCE1FF"/>
<rect width="485" height="44" fill="#F2F7FF"/>
<path d="M74.0034 19.7231C71.4053 19.7231 69.5542 21.4995 69.5542 23.9316V23.9482C69.5542 26.2227 71.1646 27.8994 73.4639 27.8994C75.1074 27.8994 76.1533 27.061 76.5933 26.1147H76.7593C76.7593 26.2061 76.751 26.2974 76.751 26.3887C76.6597 28.6797 75.8545 30.5391 73.9536 30.5391C72.8994 30.5391 72.1606 29.9912 71.8452 29.1528L71.8203 29.0698H69.7119L69.7285 29.1611C70.1104 30.9956 71.7539 32.2988 73.9536 32.2988C76.9668 32.2988 78.7847 29.9082 78.7847 25.874V25.8574C78.7847 21.541 76.5601 19.7231 74.0034 19.7231ZM73.9951 26.2559C72.6338 26.2559 71.646 25.2598 71.646 23.8735V23.8569C71.646 22.5205 72.7002 21.4663 74.02 21.4663C75.3481 21.4663 76.3857 22.5371 76.3857 23.9067V23.9233C76.3857 25.2764 75.3481 26.2559 73.9951 26.2559ZM81.8732 24.2388C82.6369 24.2388 83.193 23.6577 83.193 22.9272C83.193 22.1885 82.6369 21.6157 81.8732 21.6157C81.1179 21.6157 80.5534 22.1885 80.5534 22.9272C80.5534 23.6577 81.1179 24.2388 81.8732 24.2388ZM81.8732 30.3979C82.6369 30.3979 83.193 29.8252 83.193 29.0864C83.193 28.3477 82.6369 27.7749 81.8732 27.7749C81.1179 27.7749 80.5534 28.3477 80.5534 29.0864C80.5534 29.8252 81.1179 30.3979 81.8732 30.3979ZM90.7723 32H92.8226V29.7007H94.433V27.9326H92.8226V20.022H89.7928C88.1659 22.4956 86.4642 25.2515 84.912 27.9492V29.7007H90.7723V32ZM86.9042 27.9824V27.8579C88.0663 25.8242 89.4525 23.6079 90.681 21.7319H90.8055V27.9824H86.9042ZM98.7168 32H100.858V20.022H98.7251L95.5957 22.2217V24.2388L98.5757 22.1304H98.7168V32Z" fill="black"/>
<g clip-path="url(#clip2_195_4915)">
<rect x="376.85" y="19" width="3.2" height="12" rx="1" fill="black"/>
<rect x="371.55" y="21.4" width="3.2" height="9.6" rx="1" fill="black"/>
<rect x="366.25" y="24" width="3.2" height="7" rx="1" fill="black"/>
<rect x="360.95" y="26.4" width="3.2" height="4.6" rx="1" fill="black"/>
</g>
<path d="M394.509 27.1335C395.212 27.1335 395.896 27.3184 396.498 27.6709L396.742 27.8137C396.927 27.9219 396.959 28.1753 396.808 28.3266L394.724 30.4043C394.596 30.5319 394.389 30.5319 394.261 30.4043L392.191 28.3399C392.04 28.1893 392.071 27.9372 392.255 27.8282L392.496 27.6847C393.104 27.3233 393.796 27.1335 394.509 27.1335Z" fill="black"/>
<path d="M394.509 23.3169C396.259 23.3169 397.939 23.8974 399.307 24.9725L399.501 25.1244C399.655 25.2455 399.669 25.4738 399.53 25.6122L398.286 26.8526C398.171 26.9673 397.989 26.9805 397.858 26.8835L397.707 26.7709C396.782 26.0838 395.668 25.7153 394.509 25.7153C393.342 25.7153 392.221 26.0884 391.294 26.7833L391.142 26.897C391.012 26.9948 390.829 26.9819 390.713 26.8669L389.47 25.6269C389.331 25.4888 389.345 25.2611 389.498 25.1398L389.69 24.9877C391.062 23.9031 392.75 23.3169 394.509 23.3169Z" fill="black"/>
<path d="M394.509 19.5C397.286 19.5 399.942 20.4796 402.044 22.2752L402.223 22.4285C402.368 22.5524 402.377 22.7731 402.242 22.9078L401.002 24.1441C400.882 24.2639 400.69 24.2723 400.56 24.1635L400.406 24.0351C398.751 22.6512 396.677 21.8984 394.509 21.8984C392.333 21.8984 390.252 22.6564 388.595 24.049L388.441 24.178C388.311 24.2873 388.119 24.2791 387.998 24.1591L386.759 22.9229C386.624 22.7885 386.632 22.5681 386.777 22.4441L386.955 22.2908C389.06 20.4855 391.723 19.5 394.509 19.5Z" fill="black"/>
<rect x="410.5" y="20.5" width="21" height="9" rx="1.33" fill="black"/>
<path opacity="0.4" fill-rule="evenodd" clip-rule="evenodd" d="M414.1 19.5H427.9C428.897 19.5 429.584 19.5008 430.117 19.5444C430.639 19.587 430.925 19.6655 431.135 19.7725C431.605 20.0122 431.988 20.3946 432.228 20.865C432.334 21.0749 432.413 21.3608 432.456 21.8826C432.499 22.4161 432.5 23.1034 432.5 24.1V25.9C432.5 26.8966 432.499 27.5839 432.456 28.1174C432.413 28.6392 432.334 28.9251 432.228 29.135C431.988 29.6054 431.605 29.9878 431.135 30.2275C430.925 30.3345 430.639 30.413 430.117 30.4556C429.584 30.4992 428.897 30.5 427.9 30.5H414.1C413.103 30.5 412.416 30.4992 411.883 30.4556C411.361 30.413 411.075 30.3345 410.865 30.2275C410.395 29.9878 410.012 29.6054 409.772 29.135C409.666 28.9251 409.587 28.6392 409.544 28.1174C409.501 27.5839 409.5 26.8966 409.5 25.9V24.1C409.5 23.1034 409.501 22.4161 409.544 21.8826C409.587 21.3608 409.666 21.0749 409.772 20.865C410.012 20.3946 410.395 20.0122 410.865 19.7725C411.075 19.6655 411.361 19.587 411.883 19.5444C412.416 19.5008 413.103 19.5 414.1 19.5ZM408.5 24.1C408.5 22.1398 408.5 21.1597 408.881 20.411C409.217 19.7525 409.752 19.217 410.411 18.8815C411.16 18.5 412.14 18.5 414.1 18.5H427.9C429.86 18.5 430.84 18.5 431.589 18.8815C432.248 19.217 432.783 19.7525 433.119 20.411C433.5 21.1597 433.5 22.1398 433.5 24.1V25.9C433.5 27.8602 433.5 28.8403 433.119 29.589C432.783 30.2475 432.248 30.783 431.589 31.1185C430.84 31.5 429.86 31.5 427.9 31.5H414.1C412.14 31.5 411.16 31.5 410.411 31.1185C409.752 30.783 409.217 30.2475 408.881 29.589C408.5 28.8403 408.5 27.8602 408.5 25.9V24.1ZM434.5 27C435.328 26.8 436 26.1046 436 25C436 23.8954 435.328 23.2 434.5 23L434.5 25L434.5 27Z" fill="black"/>
<defs>
<clipPath id="clip0_195_4915">
<rect width="16" height="16" fill="white" transform="translate(369.98 88.98)"/>
</clipPath>
<clipPath id="clip1_195_4915">
<rect width="16" height="16" fill="white" transform="translate(392 207.635)"/>
</clipPath>
<clipPath id="clip2_195_4915">
<rect width="20" height="14" fill="white" transform="translate(360.5 18)"/>
</clipPath>
</defs>
</svg>
