<svg width="687" height="333" viewBox="0 0 687 333" fill="none" xmlns="http://www.w3.org/2000/svg">
<path d="M240 179.55C235.6 177.95 232.1 175.75 228.9 172.35C225.7 168.95 223.6 164.85 222.6 160.05C226.2 156.65 230.4 152.35 235.2 147.15C240 141.95 244.7 135.75 249.3 128.55C253.9 121.15 257.7 112.85 260.7 103.65C263.9 94.45 265.5 84.15 265.5 72.75V36.45C267.3 35.85 269.4 35.35 271.8 34.95C274.2 34.55 276.7 34.35 279.3 34.35C283.9 34.35 288.4 35.05 292.8 36.45V105.75C292.8 138.95 304.9 155.55 329.1 155.55C343.3 155.55 353.7 149.85 360.3 138.45C367.1 126.85 370.5 111.05 370.5 91.05V36.45C374.7 35.05 379.2 34.35 384 34.35C389 34.35 393.6 35.05 397.8 36.45V260.25C397.8 284.65 393.5 302.75 384.9 314.55C376.5 326.35 362.9 332.25 344.1 332.25C330.1 332.25 318.6 327.35 309.6 317.55C300.6 307.95 296.1 295.25 296.1 279.45C296.1 242.85 321.1 208.55 371.1 176.55V162.45C359.7 175.65 344.5 182.25 325.5 182.25C311.5 182.25 299.8 178.95 290.4 172.35C281.2 165.75 274.5 156.25 270.3 143.85C265.9 151.65 266.2 155.15 261 161.55C255.8 167.75 245.2 175.95 240 179.55ZM322.5 278.25C322.5 287.25 324.5 294.25 328.5 299.25C332.5 304.45 338 307.05 345 307.05C354.4 307.05 361.2 303.05 365.4 295.05C369.8 287.25 372 275.65 372 260.25V207.15C339 230.35 322.5 254.05 322.5 278.25Z" fill="#CF7761"/>
<path d="M399.86 192.45C396.86 194.85 394.26 196.05 392.06 196.05C388.66 196.05 385.56 194.25 382.76 190.65C379.96 187.25 378.56 183.95 378.56 180.75C378.56 178.75 379.06 177.15 380.06 175.95C380.86 174.75 382.16 173.45 383.96 172.05L440.66 129.45C438.66 122.25 437.66 114.75 437.66 106.95C437.66 92.55 440.76 79.75 446.96 68.55C453.16 57.35 461.56 48.55 472.16 42.15C482.96 35.55 495.06 32.25 508.46 32.25C521.86 32.25 533.86 35.55 544.46 42.15C555.06 48.55 563.36 57.35 569.36 68.55C575.56 79.75 578.66 92.55 578.66 106.95C578.66 121.35 575.56 134.25 569.36 145.65C563.36 157.05 555.06 166.05 544.46 172.65C534.06 179.05 522.06 182.25 508.46 182.25C496.46 182.25 485.56 179.75 475.76 174.75C466.16 169.55 458.16 162.55 451.76 153.75L399.86 192.45ZM508.16 156.45C520.96 156.45 531.16 151.95 538.76 142.95C546.56 133.95 550.46 121.95 550.46 106.95C550.46 92.35 546.56 80.55 538.76 71.55C531.16 62.55 521.06 58.05 508.46 58.05C495.86 58.05 485.56 62.65 477.56 71.85C469.76 80.85 465.86 92.75 465.86 107.55C465.86 122.15 469.66 133.95 477.26 142.95C485.06 151.95 495.36 156.45 508.16 156.45Z" fill="#CF7761"/>
<path d="M242.63 159.912C242.63 159.912 122.496 267.437 39.345 253.42C-43.8063 239.402 106.016 97.9672 106.016 97.9672" stroke="#CF7761" stroke-width="27"/>
<path d="M672.5 42.5501C672.5 42.5501 675.427 74.2108 605 96.5502C534.572 118.89 451.843 75.8942 488.627 49.0503" stroke="#CF7761" stroke-width="27"/>
</svg>
